# xmcd
# 
# Track frame offsets:
#     150
#     12440
#     21675
#     37120
#     51135
#     67007
#     84152
#     98177
#     112250
#     127695
#     139215
#     153490
#     168115
#     178642
# 
# Disc length: 2592
# 
# Revision: 10
# Processed by: cddbd v1.5.2PL0 Copyright (c) Steve Scherf et al.
# Submitted via: fre:ac v1.1beta1pre5
# 
DISCID=bd0a1e0e
DTITLE=John Lee Hooker - Blues For Big Town
DYEAR=1997
DGENRE=Blues
TTITLE0=John Lee Hooker - Mad Man Blues
TTITLE1=John Lee Hooker - Hey Boogie
TTITLE2=John Lee Hooker - Just Me And My Telephone
TTITLE3=John Lee Hooker - I Don't Want Your Money
TTITLE4=John Lee Hooker - Hey Baby
TTITLE5=John Lee Hooker - The Journey
TTITLE6=John Lee Hooker - Bluebird
TTITLE7=John Lee Hooker - Apologize
TTITLE8=John Lee Hooker - Lonely Boy Boogie
TTITLE9=John Lee Hooker - Please Don't Go
TTITLE10=John Lee Hooker - Worried Life Blues
TTITLE11=John Lee Hooker - Blues For Big Town
TTITLE12=John Lee Hooker - Big Fine Woman
TTITLE13=John Lee Hooker - Blues For Christmas
EXTD=
EXTT0=
EXTT1=
EXTT2=
EXTT3=
EXTT4=
EXTT5=
EXTT6=
EXTT7=
EXTT8=
EXTT9=
EXTT10=
EXTT11=
EXTT12=
EXTT13=
PLAYORDER=
